<svg width="16" height="16" viewBox="0 0 16 16" fill="none" xmlns="http://www.w3.org/2000/svg">
<g clip-path="url(#clip0_113_1398)">
<path fill-rule="evenodd" clip-rule="evenodd" d="M3.04345 2.00012C2.46738 2.00012 2 2.47536 2 3.06039V3.68442C2 4.11777 2.16479 4.53451 2.45957 4.84797L5.69007 8.28301L5.69149 8.28084C6.31514 8.91931 6.66604 9.7824 6.66604 10.6823V13.7302C6.66604 13.9339 6.87913 14.0639 7.056 13.9679L8.8957 12.9654C9.17343 12.8137 9.34675 12.519 9.34675 12.1991V10.6744C9.34675 9.77952 9.69267 8.92003 10.3106 8.28301L13.5411 4.84797C13.8352 4.53451 14 4.11777 14 3.68442V3.06039C14 2.47536 13.5333 2.00012 12.9573 2.00012H3.04345Z" stroke="white" stroke-width="1.5" stroke-linecap="round" stroke-linejoin="round"/>
</g>
<defs>
<clipPath id="clip0_113_1398">
<rect width="16" height="16" fill="white"/>
</clipPath>
</defs>
</svg>
